<?xml version="1.0" encoding="UTF-8"?>
<svg viewBox="0 0 937.42157 286.88333" xmlns="http://www.w3.org/2000/svg">
 <path transform="translate(593.97 765.3)" d="m-593.97-765.3h937.42v286.88h-937.42z" fill="#304c2e"/>
 <g transform="translate(1555.5 412.23)" fill="#00d700">
  <path d="m-1436.2-348.79v20h20v-20h-20zm20 20v20h-20v20h-20v20h-20v60h20v-40h20v40h20v-20h100v20h20v-40h20v40h20v-60h-20v-20h-20v-20h-20v-20h-20v20h-60v-20h-20zm100 0h20v-20h-20v20zm0 120h-40v20h40v-20zm-100 0v20h40v-20h-40zm0-80h20v20h-20v-20zm80 0h20v20h-20v-20z"/>
  <path d="m-1096.8-348.79v20h-60v20h-20v60h60v20h-20v20h40v-20h20v-20h40v20h20v20h40v-20h-20v-20h60v-60h-20v-20h-60v-20h-80zm120 140v20h40v-20h-40zm-60-20h-40v20h40v-20zm-100 20h-40v20h40v-20zm20-80h40v20h-40v-20zm80 0h40v20h-40v-20z"/>
  <path d="m-797.45-348.79v20h-20v20h-20v20h-20v40h40v20h20v-20h40v20h20v-20h40v-40h-20v-20h-20v-20h-20v-20h-40zm60 120v20h20v-20h-20zm20 20v20h20v-20h-20zm-20 0h-20v20h20v-20zm-20 0v-20h-40v20h40zm-40 0h-20v20h20v-20zm-20 0v-20h-20v20h20zm-20 0h-20v20h20v-20zm20-80h20v20h-20v-20zm60 0h20v20h-20v-20z"/>
 </g>
</svg>
